# This file uses centimeters as units for non-parametric coordinates.

mtllib box.mtl
g default
v -0.431516 -0.028029 -2.609806
v -0.475002 -0.041874 -2.566320
v -0.493302 -0.023574 -2.548020
v -0.479457 0.019912 -2.561865
v 0.479457 0.019912 -2.561865
v 0.493302 -0.023574 -2.548020
v 0.475002 -0.041874 -2.566320
v 0.431516 -0.028029 -2.609806
v -0.479457 0.882944 -2.561865
v -0.493302 0.926431 -2.548020
v -0.475002 0.944730 -2.566320
v -0.431516 0.930885 -2.609806
v 0.431516 0.930885 -2.609806
v 0.475002 0.944730 -2.566320
v 0.493302 0.926431 -2.548020
v 0.479457 0.882944 -2.561865
v -0.431516 0.930885 -3.472838
v -0.475002 0.944730 -3.516325
v -0.493302 0.926431 -3.534624
v -0.479457 0.882944 -3.520779
v 0.431516 0.930885 -3.472838
v 0.475002 0.944730 -3.516325
v 0.493302 0.926431 -3.534624
v 0.479457 0.882944 -3.520779
v -0.479457 0.019912 -3.520779
v -0.493302 -0.023574 -3.534624
v -0.475002 -0.041874 -3.516325
v -0.431516 -0.028029 -3.472838
v 0.431516 -0.028029 -3.472838
v 0.475002 -0.041874 -3.516325
v 0.493302 -0.023574 -3.534624
v 0.479457 0.019912 -3.520779
vt 0.632362 0.667699
vt 0.632362 0.336734
vt 0.930233 0.336734
vt 0.930233 0.667699
vt 0.624089 0.665482
vt 0.624089 0.338951
vt 0.938507 0.665482
vt 0.938507 0.338951
vt 0.618032 0.659426
vt 0.618032 0.345008
vt 0.944563 0.659426
vt 0.944563 0.345008
vt 0.300024 0.667699
vt 0.300024 0.336734
vt 0.597896 0.336734
vt 0.597896 0.667699
vt 0.291751 0.338951
vt 0.291751 0.665482
vt 0.606169 0.338951
vt 0.606169 0.665482
vt 0.285694 0.345008
vt 0.285694 0.659426
vt 0.612225 0.345008
vt 0.612225 0.659426
vt 0.007942 0.991952
vt 0.016215 0.983678
vt 0.314087 0.983678
vt 0.322360 0.991952
vt 0.007942 0.677533
vt 0.016215 0.685807
vt 0.314087 0.685807
vt 0.322360 0.677533
vt 0.001885 0.998008
vt 0.328416 0.998008
vt 0.001885 0.671477
vt 0.328416 0.671477
vt 0.350269 0.983678
vt 0.341996 0.991952
vt 0.341996 0.677533
vt 0.350269 0.685807
vt 0.648141 0.983678
vt 0.656414 0.991952
vt 0.335939 0.998008
vt 0.335939 0.671477
vt 0.656414 0.677533
vt 0.648141 0.685807
vt 0.662470 0.998008
vt 0.662470 0.671477
vt 0.010159 0.332957
vt 0.001885 0.330740
vt 0.001885 0.004209
vt 0.010159 0.001992
vt 0.308030 0.001992
vt 0.308030 0.332957
vt 0.316303 0.330740
vt 0.316303 0.004209
vt 0.637445 0.330740
vt 0.629172 0.332957
vt 0.629172 0.001992
vt 0.637445 0.004209
vt 0.331301 0.332957
vt 0.331301 0.001992
vt 0.323027 0.330740
vt 0.323027 0.004209
vn 0.000000 0.018217 0.999834
vn 0.000000 0.003676 0.999993
vn 0.000000 0.003676 0.999993
vn 0.000000 0.018217 0.999834
vn -0.194456 -0.961443 0.194457
vn 0.194456 -0.961443 0.194457
vn 0.021609 -0.999533 -0.021609
vn -0.021609 -0.999533 -0.021609
vn 0.021609 0.999533 -0.021609
vn -0.194456 0.961443 0.194457
vn 0.194456 0.961443 0.194457
vn -0.021609 0.999533 -0.021609
vn 0.000000 -0.003676 0.999993
vn 0.000000 -0.003676 0.999993
vn 0.000000 -0.018217 0.999834
vn 0.000000 -0.018217 0.999834
vn 0.021609 -0.999533 0.021609
vn -0.194456 -0.961443 -0.194457
vn 0.194456 -0.961443 -0.194457
vn -0.021609 -0.999533 0.021609
vn 0.000000 0.003676 -0.999993
vn 0.000000 0.003676 -0.999993
vn 0.000000 0.018217 -0.999834
vn 0.000000 0.018217 -0.999834
vn -0.021609 0.999533 0.021609
vn 0.021609 0.999533 0.021609
vn 0.000000 -0.018217 -0.999834
vn 0.000000 -0.018217 -0.999834
vn 0.999834 0.018217 0.000000
vn 0.999834 0.018217 0.000000
vn 0.999834 -0.018217 0.000000
vn 0.999834 -0.018217 0.000000
vn -0.999834 0.018217 0.000000
vn -0.999834 0.018217 0.000000
vn -0.999834 -0.018217 0.000000
vn -0.999834 -0.018217 0.000000
vn 0.999993 -0.003676 0.000000
vn 0.999993 -0.003676 0.000000
vn 0.194456 0.961443 -0.194457
vn -0.999993 -0.003676 0.000000
vn -0.999993 -0.003676 0.000000
vn -0.194456 0.961443 -0.194457
vn 0.000000 -0.003676 -0.999993
vn 0.000000 -0.003676 -0.999993
vn -0.999993 0.003676 0.000000
vn -0.999993 0.003676 0.000000
vn 0.999993 0.003676 0.000000
vn 0.999993 0.003676 0.000000
s 1
g pCube1
usemtl initialShadingGroup
f 4/49/1 3/50/2 6/51/3 5/52/4
f 3/33/2 2/25/5 7/28/6 6/34/3
f 2/25/5 1/26/7 8/27/8 7/28/6
f 12/37/9 11/38/10 14/39/11 13/40/12
f 11/38/10 10/43/13 15/44/14 14/39/11
f 10/55/13 9/54/15 16/53/16 15/56/14
f 28/30/17 27/29/18 30/32/19 29/31/20
f 27/29/18 26/35/21 31/36/22 30/32/19
f 26/57/21 25/58/23 32/59/24 31/60/22
f 4/49/1 5/52/4 16/53/16 9/54/15
f 12/37/9 13/40/12 21/46/25 17/41/26
f 20/61/27 24/62/28 32/59/24 25/58/23
f 28/30/17 29/31/20 8/27/8 1/26/7
f 5/1/29 32/2/30 24/3/31 16/4/32
f 25/13/33 4/14/34 9/15/35 20/16/36
f 15/7/37 16/4/32 24/3/31 23/8/38
f 13/40/12 14/39/11 22/45/39 21/46/25
f 14/11/11 15/7/37 23/8/38 22/12/39
f 9/15/35 10/19/40 19/20/41 20/16/36
f 10/19/40 11/23/10 18/24/42 19/20/41
f 11/38/10 12/37/9 17/41/26 18/42/42
f 20/61/27 19/63/43 23/64/44 24/62/28
f 19/47/43 18/42/42 22/45/39 23/48/44
f 18/42/42 17/41/26 21/46/25 22/45/39
f 1/26/7 2/25/5 27/29/18 28/30/17
f 2/21/5 3/17/45 26/18/46 27/22/18
f 3/17/45 4/14/34 25/13/33 26/18/46
f 5/1/29 6/5/47 31/6/48 32/2/30
f 6/5/47 7/9/6 30/10/19 31/6/48
f 7/28/6 8/27/8 29/31/20 30/32/19
