# This file uses centimeters as units for non-parametric coordinates.

mtllib Floor_1.mtl
g default
v -5.000000 3.207682 5.000000
v 5.000000 3.207682 -4.999998
v 5.000000 3.207682 5.000000
v -5.000000 3.207682 -4.999998
v 3.999999 -0.792319 1.000000
v 3.999999 -0.792319 -1.000000
v 3.000000 -0.792319 1.000000
v 3.000000 -0.792319 -1.000000
v 2.000000 -0.792319 0.999998
v 2.000000 -0.792319 -1.000000
v -2.000000 -0.792319 1.000000
v -2.000000 -0.792319 -1.000000
v -3.000000 -0.792319 1.000000
v -3.000000 -0.792319 -1.000000
v -3.999999 -0.792319 1.000000
v -3.999999 -0.792319 -1.000000
v 3.999999 -2.292319 1.000000
v 3.999999 -2.292319 -1.000000
v 3.000000 -1.792319 1.000000
v 3.999999 -1.792319 0.999998
v 3.000000 -1.792319 -1.000000
v 3.999999 -1.792319 -1.000000
v 2.000000 -1.292319 1.000000
v 3.000000 -1.292319 0.999998
v 2.000000 -1.292319 -1.000000
v 3.000000 -1.292319 -1.000000
v -5.000000 0.707681 1.000000
v -4.500000 0.707681 1.000000
v -5.000000 0.707681 -1.000000
v -4.500000 0.707681 -1.000000
v -3.000000 -0.292319 1.000000
v -3.999999 -0.042319 1.000000
v -3.999999 -0.042319 1.000000
v -3.000000 -0.042319 1.000000
v -3.000000 -0.542319 1.000000
v -2.000000 -0.542319 1.000000
v -3.000000 -0.542319 1.000000
v -2.000000 -0.542319 -1.000000
v -3.999999 -0.292319 -1.000000
v -3.000000 -0.292319 -1.000000
v -3.000000 -0.042319 -1.000000
v -3.999999 -0.042319 -1.000000
v -3.999999 -0.042319 -1.000000
v -3.000000 -0.542319 -1.000000
v -3.999999 0.207658 1.000000
v -5.000000 0.207988 1.000000
v -5.000000 0.457835 1.000000
v -3.999999 0.457670 1.000000
v -3.999999 0.453323 -1.000000
v -5.000000 0.450617 -1.000000
v -3.999999 0.205502 -1.000000
v -2.500000 -0.542319 1.000000
v -2.500000 -0.292319 1.000000
v -2.500000 -0.542319 -1.000000
v -2.500000 -0.292319 -1.000000
v -3.500000 -0.042319 1.000000
v -3.500000 0.207681 1.000000
v -3.500000 -0.042319 -1.000000
v -3.500000 0.207681 -1.000000
v -3.000000 -0.542319 -1.000000
v -4.500000 0.457670 1.000000
v -4.500000 0.453323 -1.000000
v 2.000000 -1.042319 1.000000
v 2.000000 -1.042319 -1.000000
v 3.000000 -1.542319 1.000000
v 3.000000 -1.542319 -1.000000
v 3.999999 -1.542319 1.000000
v 3.999999 -2.042319 -1.000000
v 3.999999 -2.042319 1.000000
v 4.499999 -2.042319 -1.000000
v 4.499999 -2.042319 1.000000
v 4.499999 -3.207682 0.999998
v 4.499999 -3.207682 -1.000000
v 3.500000 -1.542319 1.000000
v 3.500000 -1.542319 -1.000000
v 3.500000 -2.707682 0.999998
v 3.500000 -2.707682 -1.000000
v 2.500000 -2.207682 0.999998
v 2.500000 -2.207682 -1.000000
v 2.500000 -1.042319 -1.000000
v 2.500000 -1.042319 1.000000
v 4.999999 -2.292319 0.999998
v 4.999999 -2.292319 -1.000000
v 4.999999 -0.792319 -1.000000
v 4.999999 -0.792319 -5.000001
v -5.000000 -0.792319 -5.000001
v -5.000000 -0.792319 -1.000000
v -5.000000 -0.792319 5.000000
v -5.000000 -0.792319 0.999998
v 4.999999 -0.792319 5.000000
v 4.999999 -0.792319 0.999998
vt 2.958352 4.362298
vt -0.719231 4.362298
vt -0.719231 0.684715
vt 2.958352 0.684715
vt -4.045866 -0.196375
vt -4.045866 0.584473
vt -4.436288 0.584473
vt -4.436288 -0.196375
vt 0.336924 -3.089859
vt 1.807962 -3.089859
vt 1.807962 0.587725
vt 0.336924 0.587725
vt 0.336924 0.219968
vt 0.336924 -0.147794
vt 0.336924 -0.515552
vt -0.398591 -0.515552
vt -0.398591 -0.147794
vt -0.398591 0.219968
vt -0.398591 0.587725
vt -1.869605 0.587725
vt -1.869605 -3.089859
vt -0.398591 -3.089859
vt -0.398591 -2.722101
vt -0.398591 -2.354344
vt -0.398591 -1.986586
vt 0.336924 -1.986586
vt 0.336924 -2.354344
vt 0.336924 -2.722101
vt -4.594546 -0.196375
vt -4.594546 0.584473
vt -4.984972 0.584473
vt -4.984972 -0.196375
vt -5.143241 -0.196375
vt -5.143241 0.584473
vt -5.533664 0.584473
vt -5.533664 -0.196375
vt -5.691925 -0.196375
vt -5.691925 0.584473
vt -5.887136 0.584473
vt -5.887136 -0.196375
vt -5.125770 -0.068627
vt -4.818058 -0.068627
vt -4.818058 1.763226
vt -5.125770 1.763226
vt -5.125770 0.847301
vt -4.382183 1.763236
vt -4.689905 1.763236
vt -4.689905 -0.068627
vt -4.382183 -0.068627
vt -2.629422 -0.068627
vt -2.321688 -0.068627
vt -2.321688 1.152612
vt -2.629422 1.152612
vt -1.885820 1.152612
vt -2.193540 1.152612
vt -2.193540 -0.068627
vt -1.885820 -0.068627
vt -3.599223 0.444248
vt -3.291487 0.444248
vt -3.291487 1.054866
vt -3.599223 1.054866
vt -3.599223 0.749556
vt -3.723947 1.060175
vt -4.031681 1.060175
vt -4.031681 0.754865
vt -4.031681 0.449554
vt -3.723947 0.449554
vt 6.136597 -0.196380
vt 6.917440 -0.196380
vt 6.917440 0.974888
vt 6.136597 0.974888
vt -1.125896 0.440125
vt -1.125896 0.131317
vt -0.965278 0.131317
vt -0.965278 0.307059
vt -0.965279 0.440093
vt -1.141494 1.714576
vt -1.141494 1.232673
vt -0.820247 1.224307
vt -0.820247 1.714576
vt 5.197484 0.974888
vt 5.197484 -0.196380
vt 5.978334 -0.196380
vt 5.978334 0.974888
vt 1.920342 0.841624
vt 1.920342 1.077863
vt 1.340340 1.077863
vt 1.340340 0.605388
vt 1.920342 0.605388
vt 4.648792 0.207207
vt 5.039219 0.207207
vt 5.039219 0.692556
vt 4.648792 0.692556
vt 3.709677 0.974888
vt 3.709677 -0.196380
vt 4.490528 -0.196380
vt 4.490528 0.974888
vt 3.551413 0.974888
vt 2.770560 0.974888
vt 2.770560 -0.196380
vt 3.551413 -0.196380
vt 2.612288 0.974888
vt 1.831444 0.974888
vt 1.831444 -0.196380
vt 2.612288 -0.196380
vt 0.388745 0.448896
vt 0.388745 0.507477
vt 0.228120 0.507477
vt 0.228120 0.331734
vt 0.388745 0.331734
vt 0.388745 0.390315
vt 1.673181 0.974888
vt 0.892333 0.974888
vt 0.892333 -0.196380
vt 1.673181 -0.196380
vt 0.453854 0.420881
vt 0.614477 0.420881
vt 2.352160 0.640750
vt 0.942361 0.640750
vt 0.942361 0.066535
vt 2.352160 0.066535
vt 0.163007 2.187746
vt -0.158239 2.187746
vt -0.158239 1.705878
vt -0.158239 1.223998
vt -0.158239 0.742135
vt 0.163007 0.742135
vt 0.163007 1.223998
vt 0.163007 1.705878
vt -0.965279 0.778221
vt -1.125896 0.778353
vt -0.577137 1.173243
vt -0.898384 1.181622
vt -0.898384 0.699728
vt -0.898384 0.217904
vt -0.898384 -1.227712
vt -0.577137 -1.227712
vt -0.577137 0.217904
vt -0.577137 0.695573
vt -2.123501 0.737993
vt -2.123501 -0.436512
vt -1.543492 -0.439069
vt -1.543492 -0.204893
vt -1.543492 0.029283
vt -1.543492 0.737993
vt 5.658809 -0.849295
vt 5.658809 2.325384
vt 4.865135 2.325384
vt 4.865135 -0.849295
vt 4.221688 -0.849295
vt 4.221688 2.325384
vt 3.428015 2.325384
vt 3.428015 -0.849295
vt 0.185377 -0.196380
vt 0.185377 0.974888
vt -0.009830 0.974888
vt -0.009830 -0.196380
vt 2.784577 -0.849295
vt 2.784577 2.325384
vt 1.990909 2.325384
vt 1.990909 -0.849295
vt -0.168089 0.207207
vt -0.168089 0.692556
vt -0.363307 0.692510
vt -0.363307 0.207207
vt -0.521565 -0.196389
vt -0.521565 0.974888
vt -0.716779 0.974888
vt -0.716779 -0.186176
vt -0.875043 -0.196389
vt -0.875043 0.974884
vt -1.070257 0.974884
vt -1.070257 -0.196389
vt 1.347462 -0.849295
vt 1.347462 2.325384
vt 0.553791 2.325384
vt 0.553791 -0.849295
vt -0.089649 -0.849295
vt -0.089649 2.325384
vt -0.883322 2.325384
vt -0.883322 -0.849295
vt -0.674816 1.223980
vt -0.674816 1.714262
vt -0.755136 1.719468
vt -0.755136 1.223980
vt -1.206601 1.705878
vt -1.206601 2.187773
vt -1.286914 2.187773
vt -1.286914 1.706197
vt -2.009363 -0.196375
vt -1.228519 -0.196375
vt -1.228519 0.974897
vt -2.009363 0.974897
vt -2.167634 0.974902
vt -2.948487 0.974902
vt -2.948487 -0.196375
vt -2.167634 -0.196375
vt -3.106752 0.974897
vt -3.887600 0.974897
vt -3.887600 -0.196375
vt -3.106752 -0.196375
vt -3.168981 1.296207
vt -3.168981 0.179882
vt -3.022697 0.179882
vt -3.022697 1.296207
vt -3.433861 1.296207
vt -3.433861 0.179882
vt -3.287578 0.179882
vt -3.287578 1.296207
vt -3.698741 1.296207
vt -3.698741 0.179882
vt -3.552457 0.179882
vt -3.552457 1.296207
vn 0.000000 -1.000000 0.000000
vn 0.000000 -1.000000 0.000000
vn 0.000000 -1.000000 0.000000
vn 0.000000 -1.000000 0.000000
vn 0.000000 1.000000 0.000000
vn 0.000000 1.000000 0.000000
vn 0.000000 1.000000 0.000000
vn 0.000000 1.000000 0.000000
vn 0.000000 1.000000 0.000000
vn 0.000000 1.000000 0.000000
vn 0.000000 1.000000 0.000000
vn 0.000000 1.000000 0.000000
vn 0.000000 1.000000 0.000000
vn 0.000000 1.000000 0.000000
vn 0.000000 1.000000 0.000000
vn 0.000000 1.000000 0.000000
vn 0.000000 1.000000 0.000000
vn 0.000000 1.000000 0.000000
vn 0.000000 1.000000 0.000000
vn 0.000000 1.000000 0.000000
vn 0.000000 1.000000 0.000000
vn 0.000000 1.000000 0.000000
vn 0.000000 1.000000 0.000000
vn 0.000000 1.000000 0.000000
vn 0.000000 1.000000 0.000000
vn 0.000000 1.000000 0.000000
vn 0.000000 1.000000 0.000000
vn 0.000000 1.000000 0.000000
vn 0.242537 0.970142 0.000000
vn 0.242535 0.970143 0.000000
vn 0.000000 1.000000 0.000000
vn 0.000000 1.000000 0.000000
vn 0.242537 0.970142 0.000000
vn 0.242535 0.970143 0.000000
vn 0.000000 1.000000 0.000000
vn 0.000000 1.000000 0.000000
vn 0.000000 1.000000 0.000000
vn 0.000000 1.000000 0.000000
vn 0.000000 1.000000 0.000000
vn 0.000000 1.000000 0.000000
vn -0.000003 0.000000 -1.000000
vn -0.000003 0.000000 -1.000000
vn -0.000003 0.000000 -1.000000
vn -0.000003 0.000000 -1.000000
vn -0.000003 0.000000 -1.000000
vn 0.000000 0.000000 1.000000
vn 0.000000 0.000000 1.000000
vn 0.000000 0.000000 1.000000
vn 0.000000 0.000000 1.000000
vn -0.000001 0.000001 -1.000000
vn -0.000001 0.000001 -1.000000
vn -0.000001 0.000001 -1.000000
vn -0.000001 0.000001 -1.000000
vn 0.000000 -0.000000 1.000000
vn 0.000000 -0.000000 1.000000
vn 0.000000 -0.000000 1.000000
vn 0.000000 -0.000000 1.000000
vn -0.000001 -0.000000 -1.000000
vn -0.000001 -0.000000 -1.000000
vn -0.000001 -0.000000 -1.000000
vn -0.000001 -0.000000 -1.000000
vn -0.000001 -0.000000 -1.000000
vn 0.000000 0.000000 1.000000
vn 0.000000 0.000000 1.000000
vn 0.000000 0.000000 1.000000
vn 0.000000 0.000000 1.000000
vn 0.000000 0.000000 1.000000
vn 1.000000 0.000000 0.000000
vn 1.000000 0.000000 0.000000
vn 1.000000 0.000000 0.000000
vn 1.000000 0.000000 0.000000
vn -0.000001 -0.000001 1.000000
vn -0.000001 -0.000001 1.000000
vn -0.000001 -0.000001 1.000000
vn -0.000001 -0.000001 1.000000
vn -0.000001 -0.000001 1.000000
vn 1.000000 0.000000 0.000000
vn 1.000000 0.000000 0.000000
vn 1.000000 0.000000 0.000000
vn 1.000000 0.000000 0.000000
vn 1.000000 0.000000 0.000000
vn 1.000000 0.000000 0.000000
vn 1.000000 0.000000 0.000000
vn 1.000000 0.000000 0.000000
vn 0.000000 0.000000 -1.000000
vn 0.000000 0.000000 -1.000000
vn 0.000000 0.000000 -1.000000
vn 0.000000 0.000000 -1.000000
vn 0.000000 0.000000 -1.000000
vn 0.000000 0.000000 1.000000
vn 0.000000 0.000000 1.000000
vn 0.000000 0.000000 1.000000
vn 0.000000 0.000000 1.000000
vn 1.000000 0.000000 0.000000
vn 1.000000 0.000000 0.000000
vn 1.000000 0.000000 0.000000
vn 1.000000 0.000000 0.000000
vn 1.000000 -0.000000 0.000000
vn 1.000000 -0.000000 0.000000
vn 1.000000 -0.000000 0.000000
vn 1.000000 -0.000000 0.000000
vn 1.000000 -0.000000 0.000000
vn 1.000000 -0.000000 0.000000
vn 0.000000 0.000000 1.000000
vn 0.000000 0.000000 1.000000
vn 0.000000 0.000000 1.000000
vn 0.000000 0.000000 1.000000
vn 0.000000 0.000000 1.000000
vn 0.000000 0.000000 1.000000
vn 1.000000 0.000000 0.000000
vn 1.000000 0.000000 0.000000
vn 1.000000 0.000000 0.000000
vn 1.000000 0.000000 0.000000
vn 0.000000 0.000000 -1.000000
vn 0.000000 0.000000 -1.000000
vn 0.000000 0.000000 -1.000000
vn 0.000000 0.000000 -1.000000
vn 0.000000 0.000000 -1.000000
vn 0.000000 0.000000 -1.000000
vn 1.000000 0.000000 0.000000
vn 1.000000 0.000000 0.000000
vn 1.000000 0.000000 0.000000
vn 1.000000 0.000000 0.000000
vn 1.000000 0.000000 0.000000
vn 1.000000 0.000000 0.000000
vn 1.000000 0.000000 0.000000
vn 1.000000 0.000000 0.000000
vn 0.000000 0.000000 1.000000
vn 0.000000 0.000000 1.000000
vn 1.000000 0.000000 0.000000
vn 1.000000 0.000000 0.000000
vn 1.000000 0.000000 0.000000
vn 1.000000 0.000000 0.000000
vn 1.000000 0.000000 0.000000
vn 1.000000 0.000000 0.000000
vn 1.000000 0.000000 0.000000
vn 1.000000 0.000000 0.000000
vn 0.000000 0.000000 -1.000000
vn 0.000000 0.000000 -1.000000
vn 0.000000 0.000000 -1.000000
vn 0.000000 0.000000 -1.000000
vn 0.000000 0.000000 -1.000000
vn 0.000000 0.000000 -1.000000
vn 0.000000 1.000000 0.000000
vn 0.000000 1.000000 0.000000
vn 0.000000 1.000000 0.000000
vn 0.000000 1.000000 0.000000
vn 0.000000 1.000000 0.000000
vn 0.000000 1.000000 0.000000
vn 0.000000 1.000000 0.000000
vn 0.000000 1.000000 0.000000
vn 0.000000 0.000000 1.000000
vn 0.000000 0.000000 1.000000
vn 0.000000 0.000000 1.000000
vn 0.000000 0.000000 1.000000
vn 0.000000 1.000000 0.000000
vn 0.000000 1.000000 0.000000
vn 0.000000 1.000000 0.000000
vn 0.000000 1.000000 0.000000
vn 0.000000 0.000000 1.000000
vn 0.000000 0.000000 1.000000
vn 0.000000 0.000000 1.000000
vn 0.000000 0.000000 1.000000
vn 0.000000 0.000000 -1.000000
vn 0.000000 0.000000 -1.000000
vn 0.000000 0.000000 -1.000000
vn 0.000000 0.000000 -1.000000
vn 0.000000 0.000000 -1.000000
vn 0.000000 0.000000 -1.000000
vn 0.000000 0.000000 -1.000000
vn 0.000000 0.000000 -1.000000
vn -0.002202 0.999997 -0.000539
vn -0.002202 0.999997 -0.000539
vn -0.002202 0.999997 -0.000539
vn -0.002202 0.999997 -0.000539
vn 0.000000 0.999998 -0.002173
vn 0.000000 0.999998 -0.002173
vn 0.000000 0.999998 -0.002173
vn 0.000000 0.999998 -0.002173
vn 0.000000 0.000000 -1.000000
vn 0.000000 0.000000 -1.000000
vn 0.000000 0.000000 -1.000000
vn 0.000000 0.000000 -1.000000
vn -0.000000 0.000000 1.000000
vn -0.000000 0.000000 1.000000
vn -0.000000 0.000000 1.000000
vn -0.000000 0.000000 1.000000
vn 1.000000 -0.000000 0.000000
vn 1.000000 -0.000000 0.000000
vn 1.000000 -0.000000 0.000000
vn 1.000000 -0.000000 0.000000
vn 1.000000 0.000000 0.000000
vn 1.000000 0.000000 0.000000
vn 1.000000 0.000000 0.000000
vn 1.000000 0.000000 0.000000
vn 1.000000 -0.000000 0.000000
vn 1.000000 -0.000000 0.000000
vn 0.000000 1.000000 0.000000
vn 0.000000 1.000000 0.000000
vn 0.000000 1.000000 0.000000
vn 0.000000 1.000000 0.000000
vn 0.000000 1.000000 0.000000
vn 0.000000 1.000000 0.000000
vn 0.000000 1.000000 0.000000
vn 0.000000 1.000000 0.000000
vn 0.000000 1.000000 0.000000
vn 0.000000 1.000000 0.000000
vn 0.000000 1.000000 0.000000
vn 0.000000 1.000000 0.000000
s off
g polySurface3
usemtl lambert2SG
f 1/1/1 4/2/2 2/3/3 3/4/4
f 82/5/5 83/6/6 18/7/7 17/8/8
f 84/9/9 85/10/10 86/11/11 87/12/12 16/13/13 14/14/14 12/15/15 11/16/16 13/17/17 15/18/18 89/19/19 88/20/20 90/21/21 91/22/22 5/23/23 7/24/24 9/25/25 10/26/26 8/27/27 6/28/28
s 1
f 20/29/29 22/30/30 21/31/31 19/32/32
s 2
f 24/33/33 26/34/34 25/35/35 23/36/36
s off
f 28/37/37 30/38/38 29/39/39 27/40/40
f 5/41/41 91/42/42 82/43/43 17/44/44 67/45/45
f 84/46/46 6/47/47 18/48/48 83/49/49
f 7/50/50 5/51/51 20/52/52 19/53/53
f 6/54/54 8/55/55 21/56/56 22/57/57
f 9/58/58 7/59/59 24/60/60 23/61/61 63/62/62
f 8/63/63 10/64/64 64/65/65 25/66/66 26/67/67
f 63/68/68 64/69/69 10/70/70 9/71/71
s 3
f 46/72/72 89/73/73 15/74/74 32/75/75 45/76/76
s off
f 28/77/77 61/78/78 62/79/79 30/80/80
f 57/81/81 56/82/82 58/83/83 59/84/84
s 4
f 60/85/85 14/86/86 16/87/87 39/88/88 40/89/89
s off
f 13/90/90 11/91/91 36/92/92 37/93/93
f 53/94/94 52/95/95 54/96/96 55/97/97
s 2
f 26/98/34 24/99/33 65/100/98 66/101/99
s off
f 70/102/100 71/103/101 72/104/102 73/105/103
f 31/106/104 34/107/105 33/108/106 15/109/107 13/110/108 35/111/109
f 38/112/110 36/113/111 11/114/112 12/115/113
s 4
f 40/89/89 39/88/88 43/116/114 41/117/115
s off
f 12/118/116 14/119/117 44/120/118 38/121/119
f 41/122/120 34/123/121 31/124/122 35/125/123 13/126/124 14/127/125 60/128/126 40/129/127
s 3
f 46/72/72 45/76/76 48/130/128 47/131/129
s off
f 49/132/130 48/133/131 45/134/132 32/135/133 15/136/134 16/137/135 42/138/136 51/139/137
f 87/140/138 50/141/139 49/142/140 51/143/141 42/144/142 16/145/143
f 36/146/144 38/147/145 54/148/146 52/149/147
f 53/150/148 55/151/149 40/152/150 31/153/151
f 52/154/152 53/155/153 31/156/154 35/157/155
f 34/158/156 41/159/157 58/160/158 56/161/159
f 56/162/160 57/163/161 45/164/162 32/165/163
f 59/166/164 58/167/165 42/168/166 51/169/167
f 55/170/168 54/171/169 60/172/170 40/173/171
f 57/174/172 59/175/173 51/176/174 45/177/175
f 48/178/176 49/179/177 62/180/178 61/181/179
f 30/182/180 62/183/181 50/184/182 29/185/183
f 61/186/184 28/187/185 27/188/186 47/189/187
f 78/190/188 79/191/189 80/192/190 81/193/191
f 75/194/192 74/195/193 76/196/194 77/197/195
s 1
f 22/198/30 20/199/29 69/200/196 68/201/197
s off
f 68/202/198 69/203/199 71/204/200 70/205/201
f 66/206/202 65/207/203 74/208/204 75/209/205
f 64/210/206 63/211/207 81/212/208 80/213/209
