# This file uses centimeters as units for non-parametric coordinates.

mtllib Wall_1.mtl
g default
v 4.999999 1.415363 5.000000
v 4.999999 1.415363 1.000000
v 4.999999 1.415363 -1.000000
v 4.999999 1.415363 -4.999999
v -5.000000 1.415363 5.000000
v -5.000000 1.415363 1.000000
v -5.000000 1.415363 -1.000000
v -5.000000 1.415363 -4.999999
v 4.999999 -0.084638 1.000000
v 4.999999 -0.084638 -1.000000
v 5.000000 5.415363 5.000002
v 5.000000 5.415363 -4.999997
v -5.000000 5.415363 -4.999997
v -5.000000 5.415363 5.000002
vt 4.078365 0.403044
vt 7.670597 0.403043
vt 7.670597 1.943280
vt 6.233706 1.943280
vt 5.515259 1.943280
vt 4.078366 1.943280
vt 0.326978 1.939753
vt 0.326981 0.399516
vt 3.919212 0.399516
vt 3.919214 1.939753
vt -3.419781 0.399516
vt 0.172453 0.399516
vt 0.172453 1.939753
vt -3.419778 1.939753
vt -7.166543 0.379478
vt -3.574312 0.379478
vt -3.574312 1.919714
vt -5.011204 1.919714
vt -5.729652 1.919714
vt -7.166543 1.919714
vt 0.644670 0.672273
vt 0.668119 0.672274
vt 0.668119 0.673949
vt 0.644670 0.673948
vn -1.000000 -0.000000 0.000000
vn -1.000000 -0.000000 0.000000
vn -1.000000 -0.000000 0.000000
vn -1.000000 -0.000000 0.000000
vn -1.000000 -0.000000 0.000000
vn -1.000000 -0.000000 0.000000
vn 0.000000 0.000001 -1.000000
vn 0.000000 0.000001 -1.000000
vn 0.000000 0.000001 -1.000000
vn 0.000000 0.000001 -1.000000
vn 0.000000 -0.000001 1.000000
vn 0.000000 -0.000001 1.000000
vn 0.000000 -0.000001 1.000000
vn 0.000000 -0.000001 1.000000
vn 1.000000 0.000000 0.000000
vn 1.000000 0.000000 0.000000
vn 1.000000 0.000000 0.000000
vn 1.000000 0.000000 0.000000
vn 1.000000 0.000000 0.000000
vn 1.000000 0.000000 0.000000
vn -1.000000 0.000000 0.000000
vn -1.000000 0.000000 0.000000
s 1
g polySurface2 pCube1
usemtl initialShadingGroup
f 11/1/1 12/2/2 4/3/3 3/4/4 2/5/5 1/6/6
s off
f 11/7/7 1/8/8 5/9/9 14/10/10
f 12/11/11 13/12/12 8/13/13 4/14/14
f 13/15/15 14/16/16 5/17/17 6/18/18 7/19/19 8/20/20
s 1
f 9/21/21 2/22/5 3/23/4 10/24/22
